<svg width="15" height="15" viewBox="0 0 15 15" fill="none" xmlns="http://www.w3.org/2000/svg">
<path d="M9.29688 13.1875L14.5625 7.9375C14.625 7.875 14.6692 7.80729 14.695 7.73438C14.7213 7.66146 14.7344 7.58333 14.7344 7.5C14.7344 7.41667 14.7213 7.33854 14.695 7.26562C14.6692 7.19271 14.625 7.125 14.5625 7.0625L9.29688 1.79687C9.15104 1.65104 8.96875 1.57812 8.75 1.57812C8.53125 1.57812 8.34375 1.65625 8.1875 1.8125C8.03125 1.96875 7.95313 2.15104 7.95313 2.35938C7.95313 2.56771 8.03125 2.75 8.1875 2.90625L12.7812 7.5L8.1875 12.0938C8.04167 12.2396 7.96875 12.4192 7.96875 12.6325C7.96875 12.8463 8.04688 13.0312 8.20312 13.1875C8.35938 13.3438 8.54167 13.4219 8.75 13.4219C8.95833 13.4219 9.14062 13.3438 9.29688 13.1875Z" fill="#686777"/>
</svg>
