<svg width="24" height="24" viewBox="0 0 24 24" fill="none" xmlns="http://www.w3.org/2000/svg">
<path d="M8.94994 5C7.97321 5.19057 7.07556 5.66826 6.37188 6.37194C5.6682 7.07561 5.19051 7.97327 4.99994 8.95M8.94994 1C6.92067 1.22544 5.02835 2.13417 3.5837 3.57701C2.13905 5.01984 1.22794 6.91101 0.999945 8.94M1.99994 16.92V19.92C1.99881 20.1985 2.05586 20.4742 2.16743 20.7293C2.27901 20.9845 2.44265 21.2136 2.64787 21.4019C2.85309 21.5901 3.09537 21.7335 3.3592 21.8227C3.62302 21.9119 3.90257 21.9451 4.17994 21.92C7.25711 21.5856 10.2129 20.5341 12.8099 18.85C15.2261 17.3147 17.2746 15.2662 18.8099 12.85C20.5 10.2412 21.5517 7.27099 21.8799 4.18C21.9049 3.90347 21.8721 3.62476 21.7834 3.36162C21.6948 3.09849 21.5524 2.85669 21.3652 2.65162C21.178 2.44655 20.9501 2.28271 20.6962 2.17052C20.4422 2.05833 20.1676 2.00026 19.8899 2H16.8899C16.4046 1.99522 15.9342 2.16708 15.5662 2.48353C15.1982 2.79999 14.9579 3.23945 14.8899 3.72C14.7633 4.68007 14.5285 5.62273 14.1899 6.53C14.0554 6.88792 14.0263 7.27691 14.106 7.65088C14.1858 8.02485 14.3711 8.36811 14.6399 8.64L15.9099 9.91C14.4864 12.4135 12.4135 14.4864 9.90994 15.91L8.63995 14.64C8.36806 14.3711 8.02479 14.1858 7.65083 14.1061C7.27686 14.0263 6.88787 14.0555 6.52995 14.19C5.62267 14.5286 4.68001 14.7634 3.71994 14.89C3.23418 14.9585 2.79054 15.2032 2.47341 15.5775C2.15628 15.9518 1.98778 16.4296 1.99994 16.92Z" fill="white"/>
</svg>
