<svg width="104" height="30" viewBox="0 0 104 30" fill="none" xmlns="http://www.w3.org/2000/svg">
<path d="M103.269 26.5401C103.269 28.1388 101.947 29.4338 100.312 29.4338H3.53792C1.90354 29.4338 0.576904 28.1388 0.576904 26.5401V3.46344C0.576904 1.86546 1.90354 0.565918 3.53792 0.565918H100.311C101.947 0.565918 103.268 1.86546 103.268 3.46344L103.269 26.5401Z" fill="black"/>
<path d="M100 0.600937C101.781 0.600937 103.23 2.01375 103.23 3.75V26.25C103.23 27.9863 101.781 29.3991 100 29.3991H3.84615C2.06538 29.3991 0.616346 27.9863 0.616346 26.25V3.75C0.616346 2.01375 2.06538 0.600937 3.84615 0.600937H100ZM100 1.58548e-06H3.84615C1.73173 1.58548e-06 0 1.68844 0 3.75V26.25C0 28.3116 1.73173 30 3.84615 30H100C102.114 30 103.846 28.3116 103.846 26.25V3.75C103.846 1.68844 102.114 1.58548e-06 100 1.58548e-06Z" fill="#A6A6A6"/>
<path d="M23.1754 14.8378C23.1531 12.4206 25.2054 11.2446 25.2992 11.1898C24.1369 9.5376 22.3354 9.31185 21.7023 9.29385C20.1892 9.1386 18.7215 10.1766 17.9507 10.1766C17.1646 10.1766 15.9777 9.30885 14.6984 9.33435C13.0523 9.3591 11.5123 10.2883 10.6677 11.7313C8.92459 14.6736 10.2246 18.9973 11.8946 21.3756C12.73 22.5403 13.7061 23.8408 14.9838 23.7951C16.2338 23.7448 16.7007 23.0181 18.2092 23.0181C19.7038 23.0181 20.1423 23.7951 21.4454 23.7658C22.7869 23.7448 23.6315 22.5958 24.4377 21.4206C25.4031 20.0856 25.7907 18.7708 25.8061 18.7033C25.7746 18.6928 23.2007 17.7351 23.1754 14.8378Z" fill="white"/>
<path d="M20.7138 7.72935C21.3861 6.9096 21.8461 5.79435 21.7184 4.6626C20.7454 4.7046 19.5284 5.31885 18.8277 6.1206C18.2077 6.8271 17.6538 7.9851 17.7969 9.0741C18.89 9.1536 20.0123 8.53635 20.7138 7.72935Z" fill="white"/>
<path d="M41.2654 23.628H39.5184L38.5615 20.6962H35.2354L34.3238 23.628H32.623L35.9184 13.647H37.9538L41.2654 23.628ZM38.273 19.4662L37.4077 16.86C37.3161 16.5937 37.1446 15.9667 36.8915 14.9797H36.8607C36.76 15.4042 36.5977 16.0312 36.3746 16.86L35.5246 19.4662H38.273Z" fill="white"/>
<path d="M49.74 19.941C49.74 21.165 49.4008 22.1325 48.7223 22.8427C48.1146 23.475 47.36 23.7907 46.4592 23.7907C45.4869 23.7907 44.7885 23.4502 44.3631 22.7692H44.3323V26.5605H42.6923V18.8002C42.6923 18.0307 42.6715 17.241 42.6315 16.431H44.0738L44.1654 17.5717H44.1961C44.7431 16.7122 45.5731 16.2832 46.6869 16.2832C47.5577 16.2832 48.2846 16.6185 48.8661 17.2897C49.4492 17.9617 49.74 18.8452 49.74 19.941ZM48.0692 19.9995C48.0692 19.299 47.9077 18.7215 47.5831 18.267C47.2285 17.793 46.7523 17.556 46.1554 17.556C45.7508 17.556 45.3831 17.688 45.0546 17.9482C44.7254 18.2107 44.51 18.5535 44.4092 18.978C44.3585 19.176 44.3331 19.338 44.3331 19.4655V20.6655C44.3331 21.189 44.4977 21.6307 44.8269 21.9915C45.1561 22.3522 45.5838 22.5322 46.11 22.5322C46.7277 22.5322 47.2085 22.2997 47.5523 21.8362C47.8969 21.372 48.0692 20.76 48.0692 19.9995Z" fill="white"/>
<path d="M58.2299 19.941C58.2299 21.165 57.8907 22.1325 57.2115 22.8427C56.6046 23.475 55.8499 23.7907 54.9492 23.7907C53.9769 23.7907 53.2784 23.4502 52.8538 22.7692H52.823V26.5605H51.183V18.8002C51.183 18.0307 51.1623 17.241 51.1223 16.431H52.5646L52.6561 17.5717H52.6869C53.233 16.7122 54.063 16.2832 55.1776 16.2832C56.0476 16.2832 56.7746 16.6185 57.3576 17.2897C57.9384 17.9617 58.2299 18.8452 58.2299 19.941ZM56.5592 19.9995C56.5592 19.299 56.3969 18.7215 56.0723 18.267C55.7176 17.793 55.243 17.556 54.6453 17.556C54.2399 17.556 53.873 17.688 53.5438 17.9482C53.2146 18.2107 52.9999 18.5535 52.8992 18.978C52.8492 19.176 52.823 19.338 52.823 19.4655V20.6655C52.823 21.189 52.9876 21.6307 53.3153 21.9915C53.6446 22.3515 54.0723 22.5322 54.5999 22.5322C55.2176 22.5322 55.6984 22.2997 56.0423 21.8362C56.3869 21.372 56.5592 20.76 56.5592 19.9995Z" fill="white"/>
<path d="M67.7223 20.829C67.7223 21.678 67.42 22.3687 66.8131 22.902C66.1461 23.4847 65.2177 23.7757 64.0246 23.7757C62.9231 23.7757 62.04 23.5687 61.3715 23.154L61.7515 21.8212C62.4715 22.2457 63.2615 22.4587 64.1223 22.4587C64.74 22.4587 65.2208 22.3222 65.5661 22.0507C65.91 21.7792 66.0815 21.4147 66.0815 20.9602C66.0815 20.5552 65.94 20.214 65.6561 19.9372C65.3738 19.6605 64.9023 19.4032 64.2438 19.1655C62.4515 18.5137 61.5561 17.559 61.5561 16.3035C61.5561 15.483 61.87 14.8102 62.4984 14.2867C63.1246 13.7625 63.96 13.5007 65.0046 13.5007C65.9361 13.5007 66.71 13.659 67.3277 13.9747L66.9177 15.2782C66.3408 14.9722 65.6884 14.8192 64.9584 14.8192C64.3815 14.8192 63.9308 14.958 63.6077 15.234C63.3346 15.4807 63.1977 15.7815 63.1977 16.1377C63.1977 16.5322 63.3538 16.8585 63.6677 17.115C63.9408 17.352 64.4369 17.6085 65.1569 17.8852C66.0377 18.231 66.6846 18.6352 67.1008 19.0987C67.5154 19.5607 67.7223 20.139 67.7223 20.829Z" fill="white"/>
<path d="M73.1446 17.6309H71.3369V21.1252C71.3369 22.0139 71.6553 22.4579 72.2938 22.4579C72.5869 22.4579 72.8299 22.4332 73.0222 22.3837L73.0676 23.5979C72.7446 23.7157 72.3192 23.7749 71.7922 23.7749C71.1446 23.7749 70.6384 23.5822 70.273 23.1974C69.9092 22.8119 69.7261 22.1654 69.7261 21.2572V17.6294H68.6492V16.4294H69.7261V15.1117L71.3369 14.6377V16.4294H73.1446V17.6309Z" fill="white"/>
<path d="M81.3007 19.9702C81.3007 21.0764 80.9761 21.9847 80.3284 22.6949C79.6492 23.4262 78.7477 23.7907 77.6238 23.7907C76.5407 23.7907 75.6784 23.4404 75.0354 22.7399C74.3923 22.0394 74.0707 21.1552 74.0707 20.0894C74.0707 18.9742 74.4015 18.0607 75.0654 17.3504C75.7277 16.6394 76.6215 16.2839 77.7454 16.2839C78.8284 16.2839 79.7 16.6342 80.3577 17.3354C80.9869 18.0157 81.3007 18.8939 81.3007 19.9702ZM79.5992 20.0219C79.5992 19.3582 79.4538 18.7889 79.1592 18.3142C78.8154 17.7397 78.3238 17.4532 77.6869 17.4532C77.0277 17.4532 76.5269 17.7404 76.183 18.3142C75.8884 18.7897 75.743 19.3679 75.743 20.0519C75.743 20.7157 75.8884 21.2849 76.183 21.7589C76.5377 22.3334 77.033 22.6199 77.6723 22.6199C78.2984 22.6199 78.79 22.3274 79.1446 21.7439C79.4469 21.2602 79.5992 20.6849 79.5992 20.0219Z" fill="white"/>
<path d="M86.6315 17.8372C86.4692 17.808 86.2961 17.793 86.1146 17.793C85.5376 17.793 85.0915 18.0052 84.7776 18.4305C84.5046 18.8055 84.3676 19.2795 84.3676 19.8517V23.628H82.7284L82.7438 18.6975C82.7438 17.868 82.723 17.1127 82.6823 16.4317H84.1107L84.1707 17.8087H84.2161C84.3892 17.3355 84.6623 16.9545 85.0361 16.6687C85.4015 16.4115 85.7961 16.2832 86.2215 16.2832C86.373 16.2832 86.51 16.2937 86.6315 16.3125V17.8372Z" fill="white"/>
<path d="M93.9661 19.689C93.9661 19.9755 93.9469 20.217 93.9061 20.4143H88.9861C89.0054 21.1253 89.2431 21.669 89.7 22.044C90.1146 22.3793 90.6507 22.5473 91.3092 22.5473C92.0377 22.5473 92.7023 22.434 93.3 22.2068L93.5569 23.3168C92.8584 23.6138 92.0338 23.7615 91.0823 23.7615C89.9377 23.7615 89.0392 23.433 88.3854 22.7768C87.7331 22.1205 87.4061 21.2393 87.4061 20.1338C87.4061 19.0485 87.71 18.1448 88.3184 17.424C88.9554 16.6545 89.8161 16.2698 90.8992 16.2698C91.963 16.2698 92.7684 16.6545 93.3154 17.424C93.7484 18.0353 93.9661 18.7913 93.9661 19.689ZM92.4023 19.2743C92.413 18.8003 92.3061 18.3908 92.0838 18.045C91.8 17.6003 91.3638 17.3783 90.7769 17.3783C90.2407 17.3783 89.8046 17.595 89.4715 18.03C89.1984 18.3758 89.0361 18.7905 88.9861 19.2735H92.4023V19.2743Z" fill="white"/>
<path d="M37.7308 7.50653C37.7308 8.38928 37.4592 9.05378 36.9169 9.50003C36.4146 9.91178 35.7008 10.118 34.7762 10.118C34.3177 10.118 33.9254 10.0985 33.5969 10.0595V5.23628C34.0254 5.16878 34.4869 5.13428 34.9854 5.13428C35.8662 5.13428 36.53 5.32103 36.9777 5.69453C37.4792 6.11678 37.7308 6.72053 37.7308 7.50653ZM36.8808 7.52828C36.8808 6.95603 36.7254 6.51728 36.4146 6.21128C36.1039 5.90603 35.65 5.75303 35.0523 5.75303C34.7985 5.75303 34.5823 5.76953 34.4031 5.80403V9.47078C34.5023 9.48578 34.6838 9.49253 34.9477 9.49253C35.5646 9.49253 36.0408 9.32528 36.3762 8.99078C36.7115 8.65628 36.8808 8.16878 36.8808 7.52828Z" fill="white"/>
<path d="M42.2377 8.2773C42.2377 8.82105 42.0785 9.26655 41.76 9.61605C41.4262 9.9753 40.9839 10.1545 40.4315 10.1545C39.8992 10.1545 39.4754 9.9828 39.1592 9.6378C38.8439 9.29355 38.6862 8.8593 38.6862 8.3358C38.6862 7.7883 38.8485 7.33905 39.1746 6.9903C39.5008 6.64155 39.9392 6.4668 40.4915 6.4668C41.0239 6.4668 41.4515 6.63855 41.7754 6.9828C42.0831 7.3173 42.2377 7.7493 42.2377 8.2773ZM41.4015 8.3028C41.4015 7.97655 41.3292 7.6968 41.1854 7.46355C41.0162 7.18155 40.7754 7.04055 40.4623 7.04055C40.1385 7.04055 39.8923 7.18155 39.7231 7.46355C39.5785 7.6968 39.5069 7.98105 39.5069 8.31705C39.5069 8.6433 39.5792 8.92305 39.7231 9.1563C39.8977 9.4383 40.1408 9.5793 40.4546 9.5793C40.7623 9.5793 41.0039 9.43605 41.1777 9.1488C41.3269 8.91105 41.4015 8.62905 41.4015 8.3028Z" fill="white"/>
<path d="M48.2807 6.53906L47.1461 10.0746H46.4076L45.9376 8.53931C45.8184 8.15606 45.7215 7.77506 45.6461 7.39706H45.6315C45.5615 7.78556 45.4645 8.16581 45.3399 8.53931L44.8407 10.0746H44.0938L43.0269 6.53906H43.8553L44.2653 8.21981C44.3645 8.61731 44.4461 8.99606 44.5115 9.35456H44.5261C44.5861 9.05906 44.6853 8.68256 44.8253 8.22731L45.3399 6.53981H45.9969L46.4899 8.19131C46.6092 8.59406 46.7061 8.98181 46.7807 9.35531H46.803C46.8576 8.99156 46.9399 8.60381 47.0492 8.19131L47.4892 6.53981H48.2807V6.53906Z" fill="white"/>
<path d="M52.46 10.0744H51.6539V8.04935C51.6539 7.42535 51.4108 7.11335 50.9231 7.11335C50.6839 7.11335 50.4908 7.19885 50.3408 7.3706C50.1923 7.54235 50.1169 7.74485 50.1169 7.9766V10.0736H49.3108V7.5491C49.3108 7.2386 49.3008 6.90185 49.2816 6.53735H49.99L50.0277 7.0901H50.05C50.1439 6.91835 50.2839 6.7766 50.4677 6.66335C50.6862 6.53135 50.9308 6.4646 51.1985 6.4646C51.5369 6.4646 51.8185 6.5711 52.0423 6.78485C52.3208 7.0466 52.46 7.43735 52.46 7.95635V10.0744Z" fill="white"/>
<path d="M54.683 10.0745H53.8776V4.91675H54.683V10.0745Z" fill="white"/>
<path d="M59.4292 8.2773C59.4292 8.82105 59.27 9.26655 58.9515 9.61605C58.6177 9.9753 58.1746 10.1545 57.6231 10.1545C57.09 10.1545 56.6661 9.9828 56.3508 9.6378C56.0354 9.29355 55.8777 8.8593 55.8777 8.3358C55.8777 7.7883 56.04 7.33905 56.3661 6.9903C56.6923 6.64155 57.1308 6.4668 57.6823 6.4668C58.2154 6.4668 58.6423 6.63855 58.9669 6.9828C59.2746 7.3173 59.4292 7.7493 59.4292 8.2773ZM58.5923 8.3028C58.5923 7.97655 58.52 7.6968 58.3761 7.46355C58.2077 7.18155 57.9661 7.04055 57.6538 7.04055C57.3292 7.04055 57.0831 7.18155 56.9146 7.46355C56.77 7.6968 56.6985 7.98105 56.6985 8.31705C56.6985 8.6433 56.7708 8.92305 56.9146 9.1563C57.0892 9.4383 57.3323 9.5793 57.6461 9.5793C57.9538 9.5793 58.1946 9.43605 58.3685 9.1488C58.5185 8.91105 58.5923 8.62905 58.5923 8.3028Z" fill="white"/>
<path d="M63.3307 10.0743H62.6069L62.5469 9.66705H62.5246C62.2769 9.9918 61.9238 10.1545 61.4654 10.1545C61.1231 10.1545 60.8461 10.0473 60.6377 9.8343C60.4484 9.6408 60.3538 9.40005 60.3538 9.1143C60.3538 8.6823 60.5384 8.35305 60.91 8.12505C61.2807 7.89705 61.8023 7.7853 62.4738 7.79055V7.72455C62.4738 7.2588 62.223 7.0263 61.7207 7.0263C61.3631 7.0263 61.0477 7.11405 60.7754 7.28805L60.6115 6.77205C60.9484 6.5688 61.3646 6.4668 61.8554 6.4668C62.8031 6.4668 63.2784 6.9543 63.2784 7.9293V9.2313C63.2784 9.58455 63.2961 9.8658 63.3307 10.0743ZM62.4938 8.8593V8.31405C61.6046 8.29905 61.16 8.5368 61.16 9.02655C61.16 9.21105 61.2107 9.34905 61.3146 9.4413C61.4184 9.53355 61.5507 9.5793 61.7084 9.5793C61.8854 9.5793 62.0507 9.52455 62.2015 9.4158C62.353 9.3063 62.4461 9.16755 62.4807 8.9973C62.4892 8.95905 62.4938 8.91255 62.4938 8.8593Z" fill="white"/>
<path d="M67.9115 10.0745H67.1962L67.1585 9.50675H67.1362C66.9077 9.93875 66.5185 10.1547 65.9715 10.1547C65.5346 10.1547 65.1708 9.9875 64.8823 9.653C64.5939 9.3185 64.45 8.88425 64.45 8.351C64.45 7.77875 64.6062 7.31525 64.92 6.96125C65.2239 6.63125 65.5962 6.46625 66.0392 6.46625C66.5262 6.46625 66.8669 6.626 67.0608 6.94625H67.0762V4.91675H67.8831V9.122C67.8831 9.46625 67.8923 9.7835 67.9115 10.0745ZM67.0762 8.5835V7.994C67.0762 7.892 67.0685 7.8095 67.0539 7.7465C67.0085 7.5575 66.9108 7.3985 66.7623 7.27025C66.6123 7.142 66.4315 7.0775 66.2231 7.0775C65.9223 7.0775 65.6869 7.19375 65.5139 7.427C65.3423 7.66025 65.2554 7.958 65.2554 8.32175C65.2554 8.67125 65.3377 8.95475 65.5031 9.173C65.6777 9.4055 65.9131 9.52175 66.2077 9.52175C66.4723 9.52175 66.6839 9.425 66.8446 9.23075C67 9.0515 67.0762 8.8355 67.0762 8.5835Z" fill="white"/>
<path d="M74.8062 8.2773C74.8062 8.82105 74.6469 9.26655 74.3285 9.61605C73.9946 9.9753 73.5531 10.1545 73 10.1545C72.4685 10.1545 72.0446 9.9828 71.7277 9.6378C71.4123 9.29355 71.2546 8.8593 71.2546 8.3358C71.2546 7.7883 71.4169 7.33905 71.7431 6.9903C72.0693 6.64155 72.5077 6.4668 73.0608 6.4668C73.5923 6.4668 74.0208 6.63855 74.3439 6.9828C74.6516 7.3173 74.8062 7.7493 74.8062 8.2773ZM73.9708 8.3028C73.9708 7.97655 73.8985 7.6968 73.7546 7.46355C73.5846 7.18155 73.3446 7.04055 73.0308 7.04055C72.7077 7.04055 72.4616 7.18155 72.2916 7.46355C72.1469 7.6968 72.0754 7.98105 72.0754 8.31705C72.0754 8.6433 72.1477 8.92305 72.2916 9.1563C72.4662 9.4383 72.7093 9.5793 73.0231 9.5793C73.3308 9.5793 73.5731 9.43605 73.7469 9.1488C73.8954 8.91105 73.9708 8.62905 73.9708 8.3028Z" fill="white"/>
<path d="M79.1408 10.0744H78.3354V8.04935C78.3354 7.42535 78.0923 7.11335 77.6038 7.11335C77.3646 7.11335 77.1715 7.19885 77.0223 7.3706C76.8731 7.54235 76.7985 7.74485 76.7985 7.9766V10.0736H75.9915V7.5491C75.9915 7.2386 75.9823 6.90185 75.9631 6.53735H76.6708L76.7085 7.0901H76.7308C76.8254 6.91835 76.9654 6.7766 77.1485 6.66335C77.3677 6.53135 77.6115 6.4646 77.88 6.4646C78.2177 6.4646 78.4992 6.5711 78.7231 6.78485C79.0023 7.0466 79.1408 7.43735 79.1408 7.95635V10.0744Z" fill="white"/>
<path d="M84.5661 7.1277H83.6784V8.8452C83.6784 9.2817 83.8361 9.49995 84.1484 9.49995C84.293 9.49995 84.413 9.48795 84.5077 9.4632L84.5284 10.0594C84.3692 10.1179 84.16 10.1472 83.9023 10.1472C83.5838 10.1472 83.3361 10.0527 83.1569 9.8637C82.9769 9.6747 82.8877 9.3567 82.8877 8.91045V7.1277H82.3577V6.53895H82.8877V5.89095L83.6777 5.65845V6.5382H84.5654V7.1277H84.5661Z" fill="white"/>
<path d="M88.8338 10.0745H88.0269V8.0645C88.0269 7.43075 87.7838 7.1135 87.2969 7.1135C86.923 7.1135 86.6677 7.29725 86.5277 7.66475C86.5038 7.742 86.49 7.8365 86.49 7.9475V10.0737H85.6846V4.91675H86.49V7.0475H86.5053C86.7592 6.65975 87.123 6.46625 87.5946 6.46625C87.9284 6.46625 88.2046 6.57275 88.4238 6.7865C88.6969 7.05275 88.8338 7.44875 88.8338 7.97225V10.0745Z" fill="white"/>
<path d="M93.2361 8.13945C93.2361 8.28045 93.2253 8.39895 93.2061 8.4957H90.7884C90.7992 8.8452 90.9146 9.11145 91.1384 9.29595C91.343 9.46095 91.6069 9.54345 91.93 9.54345C92.2877 9.54345 92.6138 9.48795 92.9076 9.3762L93.0338 9.9222C92.69 10.0677 92.2853 10.1405 91.8169 10.1405C91.2553 10.1405 90.813 9.9792 90.493 9.6567C90.1715 9.3342 90.0123 8.90145 90.0123 8.35846C90.0123 7.82521 90.1607 7.3812 90.46 7.0272C90.7723 6.6492 91.1946 6.46021 91.7277 6.46021C92.2492 6.46021 92.6453 6.6492 92.913 7.0272C93.1292 7.3272 93.2361 7.69845 93.2361 8.13945ZM92.4669 7.9362C92.473 7.70295 92.42 7.50196 92.3107 7.33246C92.1707 7.11421 91.9577 7.0047 91.6692 7.0047C91.4061 7.0047 91.1915 7.1112 91.0277 7.32495C90.8938 7.4952 90.8146 7.69845 90.7884 7.9362H92.4669Z" fill="white"/>
</svg>
