<svg width="30" height="30" viewBox="0 0 30 30" fill="none" xmlns="http://www.w3.org/2000/svg">
<rect width="30" height="30" fill="#F5F5F5"/>
<g clip-path="url(#clip0_0_1)" filter="url(#filter0_d_0_1)">
<rect width="376" height="839" transform="translate(-3 -244)" fill="white"/>
<rect width="376" height="516" transform="translate(-3 -34)" fill="white"/>
<g clip-path="url(#clip1_0_1)">
<rect width="376" height="93" transform="translate(-3 16)" fill="white"/>
<g filter="url(#filter1_d_0_1)">
<circle cx="39" cy="49" r="24" fill="#686777"/>
</g>
</g>
</g>
<g filter="url(#filter2_d_0_1)">
<rect width="376" height="839" transform="translate(-495 -244)" fill="white"/>
<rect width="376" height="1151" transform="translate(-495 -34)" fill="white"/>
<rect width="376" height="93" transform="translate(-495 -17)" fill="white"/>
<g filter="url(#filter3_d_0_1)">
<circle cx="15" cy="16" r="24" fill="#1EBE5F"/>
</g>
<path d="M25 14H26C26.5523 14 27 14.4477 27 15V20.7053C27 21.4279 26.6103 22.0942 25.9805 22.4485L25 23V18.5V14Z" fill="white"/>
<path fill-rule="evenodd" clip-rule="evenodd" d="M12.5 1C11.3954 1 10.5 1.89543 10.5 3V5C10.5 6.10457 11.3954 7 12.5 7H12.75V4C12.75 3.44772 13.1977 3 13.75 3H16.25C16.8023 3 17.25 3.44772 17.25 4V7H17.5C18.6046 7 19.5 6.10457 19.5 5V3C19.5 1.89543 18.6046 1 17.5 1H12.5Z" fill="white"/>
<path d="M5 14H4C3.44772 14 3 14.4477 3 15V20.7053C3 21.4279 3.38972 22.0942 4.01948 22.4485L5 23V18.5V14Z" fill="white"/>
<path fill-rule="evenodd" clip-rule="evenodd" d="M11 5C8.23858 5 6 7.23858 6 10V26C6 26.5523 6.44772 27 7 27H23C23.5523 27 24 26.5523 24 26V10C24 7.23858 21.7614 5 19 5H11ZM11 8C9.89543 8 9 8.89543 9 10V11C9 11.5523 9.44772 12 10 12H20C20.5523 12 21 11.5523 21 11V10C21 8.89543 20.1046 8 19 8H11ZM9 17.3333C9 16.597 9.59695 16 10.3333 16H19.6667C20.403 16 21 16.597 21 17.3333C21 17.7015 20.7015 18 20.3333 18H9.66667C9.29848 18 9 17.7015 9 17.3333ZM11 25C9.89543 25 9 24.1046 9 23V20C9 19.4477 9.44772 19 10 19H20C20.5523 19 21 19.4477 21 20V23C21 24.1046 20.1046 25 19 25H11Z" fill="white"/>
</g>
<defs>
<filter id="filter0_d_0_1" x="-47" y="-272" width="464" height="927" filterUnits="userSpaceOnUse" color-interpolation-filters="sRGB">
<feFlood flood-opacity="0" result="BackgroundImageFix"/>
<feColorMatrix in="SourceAlpha" type="matrix" values="0 0 0 0 0 0 0 0 0 0 0 0 0 0 0 0 0 0 127 0" result="hardAlpha"/>
<feMorphology radius="8" operator="dilate" in="SourceAlpha" result="effect1_dropShadow_0_1"/>
<feOffset dy="16"/>
<feGaussianBlur stdDeviation="18"/>
<feColorMatrix type="matrix" values="0 0 0 0 0.513726 0 0 0 0 0.529412 0 0 0 0 0.584314 0 0 0 0.16 0"/>
<feBlend mode="normal" in2="BackgroundImageFix" result="effect1_dropShadow_0_1"/>
<feBlend mode="normal" in="SourceGraphic" in2="effect1_dropShadow_0_1" result="shape"/>
</filter>
<filter id="filter1_d_0_1" x="11" y="23" width="56" height="56" filterUnits="userSpaceOnUse" color-interpolation-filters="sRGB">
<feFlood flood-opacity="0" result="BackgroundImageFix"/>
<feColorMatrix in="SourceAlpha" type="matrix" values="0 0 0 0 0 0 0 0 0 0 0 0 0 0 0 0 0 0 127 0" result="hardAlpha"/>
<feOffset dy="2"/>
<feGaussianBlur stdDeviation="2"/>
<feComposite in2="hardAlpha" operator="out"/>
<feColorMatrix type="matrix" values="0 0 0 0 0 0 0 0 0 0 0 0 0 0 0 0 0 0 0.09 0"/>
<feBlend mode="normal" in2="BackgroundImageFix" result="effect1_dropShadow_0_1"/>
<feBlend mode="normal" in="SourceGraphic" in2="effect1_dropShadow_0_1" result="shape"/>
</filter>
<filter id="filter2_d_0_1" x="-539" y="-272" width="700" height="1856" filterUnits="userSpaceOnUse" color-interpolation-filters="sRGB">
<feFlood flood-opacity="0" result="BackgroundImageFix"/>
<feColorMatrix in="SourceAlpha" type="matrix" values="0 0 0 0 0 0 0 0 0 0 0 0 0 0 0 0 0 0 127 0" result="hardAlpha"/>
<feMorphology radius="8" operator="dilate" in="SourceAlpha" result="effect1_dropShadow_0_1"/>
<feOffset dy="16"/>
<feGaussianBlur stdDeviation="18"/>
<feColorMatrix type="matrix" values="0 0 0 0 0.513726 0 0 0 0 0.529412 0 0 0 0 0.584314 0 0 0 0.16 0"/>
<feBlend mode="normal" in2="BackgroundImageFix" result="effect1_dropShadow_0_1"/>
<feBlend mode="normal" in="SourceGraphic" in2="effect1_dropShadow_0_1" result="shape"/>
</filter>
<filter id="filter3_d_0_1" x="-13" y="-10" width="56" height="56" filterUnits="userSpaceOnUse" color-interpolation-filters="sRGB">
<feFlood flood-opacity="0" result="BackgroundImageFix"/>
<feColorMatrix in="SourceAlpha" type="matrix" values="0 0 0 0 0 0 0 0 0 0 0 0 0 0 0 0 0 0 127 0" result="hardAlpha"/>
<feOffset dy="2"/>
<feGaussianBlur stdDeviation="2"/>
<feComposite in2="hardAlpha" operator="out"/>
<feColorMatrix type="matrix" values="0 0 0 0 0 0 0 0 0 0 0 0 0 0 0 0 0 0 0.09 0"/>
<feBlend mode="normal" in2="BackgroundImageFix" result="effect1_dropShadow_0_1"/>
<feBlend mode="normal" in="SourceGraphic" in2="effect1_dropShadow_0_1" result="shape"/>
</filter>
<clipPath id="clip0_0_1">
<rect width="376" height="839" fill="white" transform="translate(-3 -244)"/>
</clipPath>
<clipPath id="clip1_0_1">
<rect width="376" height="93" fill="white" transform="translate(-3 16)"/>
</clipPath>
</defs>
</svg>
