<svg width="22" height="25" viewBox="0 0 22 25" fill="none" xmlns="http://www.w3.org/2000/svg">
<path fill-rule="evenodd" clip-rule="evenodd" d="M0 2C0 0.89543 0.895431 0 2 0H20C21.1046 0 22 0.89543 22 2V24C22 24.5523 21.5523 25 21 25H1C0.447716 25 0 24.5523 0 24V2ZM3 6C3 4.89543 3.89543 4 5 4H17C18.1046 4 19 4.89543 19 6V10C19 10.5523 18.5523 11 18 11H4C3.44772 11 3 10.5523 3 10V6ZM8.5 19C7.67157 19 7 19.6716 7 20.5C7 21.3284 7.67157 22 8.5 22H13.5C14.3284 22 15 21.3284 15 20.5C15 19.6716 14.3284 19 13.5 19H8.5ZM5 20.5C5 21.3284 4.32843 22 3.5 22C2.67157 22 2 21.3284 2 20.5C2 19.6716 2.67157 19 3.5 19C4.32843 19 5 19.6716 5 20.5ZM18.5 22C19.3284 22 20 21.3284 20 20.5C20 19.6716 19.3284 19 18.5 19C17.6716 19 17 19.6716 17 20.5C17 21.3284 17.6716 22 18.5 22Z" fill="white"/>
</svg>
