<svg width="30" height="30" viewBox="0 0 30 30" fill="none" xmlns="http://www.w3.org/2000/svg">
<rect x="4" y="6" width="5" height="2" fill="white"/>
<path fill-rule="evenodd" clip-rule="evenodd" d="M1 8C0.447715 8 0 8.44772 0 9V24C0 24.5523 0.447716 25 1 25H29C29.5523 25 30 24.5523 30 24V9C30 8.44772 29.5523 8 29 8H1ZM15 23C18.3137 23 21 20.3137 21 17C21 13.6863 18.3137 11 15 11C11.6863 11 9 13.6863 9 17C9 20.3137 11.6863 23 15 23ZM15 20.6C13.0118 20.6 11.4 18.9882 11.4 17C11.4 15.0118 13.0118 13.4 15 13.4C16.9882 13.4 18.6 15.0118 18.6 17C18.6 18.9882 16.9882 20.6 15 20.6ZM23 10H28V13H23V10ZM2.5 13C3.32843 13 4 12.3284 4 11.5C4 10.6716 3.32843 10 2.5 10C1.67157 10 1 10.6716 1 11.5C1 12.3284 1.67157 13 2.5 13Z" fill="white"/>
</svg>
