<svg width="30" height="30" viewBox="0 0 30 30" fill="none" xmlns="http://www.w3.org/2000/svg">
<rect x="14" y="4" width="1" height="2" rx="0.5" fill="white"/>
<path fill-rule="evenodd" clip-rule="evenodd" d="M12.4496 15.8719C12.5417 16.0303 12.6756 16.1603 12.8367 16.2477L20.2095 20.2512C20.3876 20.3479 20.5801 20.1487 20.4773 19.974L16.2587 12.8041C16.1717 12.6562 16.0481 12.5332 15.8998 12.4469L8.32254 8.03712C8.14506 7.93383 7.94579 8.13309 8.04909 8.31058L12.4496 15.8719ZM14.5 16C15.3285 16 16 15.3285 16 14.5C16 13.6716 15.3285 13 14.5 13C13.6716 13 13 13.6716 13 14.5C13 15.3285 13.6716 16 14.5 16Z" fill="white"/>
<rect x="14" y="23" width="1" height="2" rx="0.5" fill="white"/>
<rect x="23" y="15" width="1" height="2" rx="0.5" transform="rotate(-90 23 15)" fill="white"/>
<rect x="4" y="15" width="1" height="2" rx="0.5" transform="rotate(-90 4 15)" fill="white"/>
<path d="M29 14.5C29 22.5081 22.5081 29 14.5 29C6.49187 29 0 22.5081 0 14.5C0 6.49187 6.49187 0 14.5 0C22.5081 0 29 6.49187 29 14.5ZM2.16452 14.5C2.16452 21.3127 7.6873 26.8355 14.5 26.8355C21.3127 26.8355 26.8355 21.3127 26.8355 14.5C26.8355 7.6873 21.3127 2.16452 14.5 2.16452C7.6873 2.16452 2.16452 7.6873 2.16452 14.5Z" fill="white"/>
</svg>
