<svg width="13" height="13" viewBox="0 0 13 13" fill="none" xmlns="http://www.w3.org/2000/svg">
<path d="M9.75 11.375C10.6475 11.375 11.375 10.6475 11.375 9.75C11.375 8.85254 10.6475 8.125 9.75 8.125C8.85254 8.125 8.125 8.85254 8.125 9.75C8.125 10.6475 8.85254 11.375 9.75 11.375Z" stroke="#111111" stroke-linecap="round" stroke-linejoin="round"/>
<path d="M3.25 4.875C4.14746 4.875 4.875 4.14746 4.875 3.25C4.875 2.35254 4.14746 1.625 3.25 1.625C2.35254 1.625 1.625 2.35254 1.625 3.25C1.625 4.14746 2.35254 4.875 3.25 4.875Z" stroke="#111111" stroke-linecap="round" stroke-linejoin="round"/>
<path d="M7.04169 3.25H8.66669C8.954 3.25 9.22955 3.36414 9.43272 3.5673C9.63588 3.77047 9.75002 4.04602 9.75002 4.33333V8.125" stroke="#111111" stroke-linecap="round" stroke-linejoin="round"/>
<path d="M3.25 4.875V11.375" stroke="#111111" stroke-linecap="round" stroke-linejoin="round"/>
</svg>
