<svg width="104" height="30" viewBox="0 0 104 30" fill="none" xmlns="http://www.w3.org/2000/svg">
<path d="M99.8625 30H3.84087C1.72935 30 0 28.3116 0 26.25V3.75C0 1.68844 1.72935 3.94756e-06 3.84087 3.94756e-06H99.8625C101.974 3.94756e-06 103.703 1.68844 103.703 3.75V26.25C103.703 28.3116 101.974 30 99.8625 30Z" fill="black"/>
<path d="M99.8625 0.600939C101.641 0.600939 103.088 2.01375 103.088 3.75V26.25C103.088 27.9863 101.641 29.3991 99.8625 29.3991H3.84087C2.06255 29.3991 0.615499 27.9863 0.615499 26.25V3.75C0.615499 2.01375 2.06255 0.600939 3.84087 0.600939H99.8625ZM99.8625 3.94756e-06H3.84087C1.72935 3.94756e-06 0 1.68844 0 3.75V26.25C0 28.3116 1.72935 30 3.84087 30H99.8625C101.974 30 103.703 28.3116 103.703 26.25V3.75C103.703 1.68844 101.974 3.94756e-06 99.8625 3.94756e-06Z" fill="#A6A6A6"/>
<path d="M36.4248 7.68274C36.4248 8.30899 36.2328 8.81056 35.8545 9.18462C35.4195 9.62806 34.853 9.85118 34.1587 9.85118C33.4952 9.85118 32.9287 9.62431 32.4639 9.17712C31.9982 8.72337 31.7659 8.16649 31.7659 7.49993C31.7659 6.83337 31.9982 6.27649 32.4639 5.82649C32.9287 5.37556 33.4952 5.14868 34.1587 5.14868C34.489 5.14868 34.804 5.21524 35.1045 5.33899C35.4041 5.46368 35.648 5.63243 35.8247 5.84056L35.4233 6.23618C35.1151 5.88087 34.6955 5.70556 34.1587 5.70556C33.6748 5.70556 33.2552 5.87056 32.8989 6.20337C32.5465 6.53712 32.3698 6.96931 32.3698 7.49993C32.3698 8.03056 32.5465 8.46649 32.8989 8.80024C33.2552 9.1293 33.6748 9.29806 34.1587 9.29806C34.6724 9.29806 35.1045 9.12931 35.4454 8.79649C35.6701 8.57618 35.7978 8.27243 35.8314 7.88431H34.1587V7.34243H36.3903C36.4172 7.45962 36.4248 7.57306 36.4248 7.68274Z" fill="white" stroke="white" stroke-width="0.16" stroke-miterlimit="10"/>
<path d="M39.9651 5.80414H37.869V7.22914H39.7587V7.77101H37.869V9.19601H39.9651V9.7482H37.2756V5.25195H39.9651V5.80414Z" fill="white" stroke="white" stroke-width="0.16" stroke-miterlimit="10"/>
<path d="M42.4636 9.7482H41.8702V5.80414H40.5845V5.25195H43.7503V5.80414H42.4636V9.7482Z" fill="white" stroke="white" stroke-width="0.16" stroke-miterlimit="10"/>
<path d="M46.0414 9.7482V5.25195H46.6338V9.7482H46.0414Z" fill="white" stroke="white" stroke-width="0.16" stroke-miterlimit="10"/>
<path d="M49.2601 9.7482H48.6715V5.80414H47.381V5.25195H50.5506V5.80414H49.2601V9.7482Z" fill="white" stroke="white" stroke-width="0.16" stroke-miterlimit="10"/>
<path d="M56.5443 9.16962C56.0901 9.62431 55.5274 9.85118 54.8562 9.85118C54.1812 9.85118 53.6185 9.62431 53.1643 9.16962C52.7111 8.71587 52.4855 8.15899 52.4855 7.49993C52.4855 6.84087 52.7111 6.28399 53.1643 5.83024C53.6185 5.37556 54.1812 5.14868 54.8562 5.14868C55.5236 5.14868 56.0863 5.37556 56.5405 5.83399C56.9975 6.29149 57.2232 6.84462 57.2232 7.49993C57.2232 8.15899 56.9975 8.71587 56.5443 9.16962ZM53.6032 8.79274C53.945 9.12931 54.3608 9.29806 54.8562 9.29806C55.3479 9.29806 55.7675 9.12931 56.1055 8.79274C56.4464 8.45618 56.6192 8.02399 56.6192 7.49993C56.6192 6.97587 56.4464 6.54368 56.1055 6.20712C55.7675 5.87056 55.3479 5.70181 54.8562 5.70181C54.3608 5.70181 53.945 5.87056 53.6032 6.20712C53.2623 6.54368 53.0895 6.97587 53.0895 7.49993C53.0895 8.02399 53.2623 8.45618 53.6032 8.79274Z" fill="white" stroke="white" stroke-width="0.16" stroke-miterlimit="10"/>
<path d="M58.0557 9.7482V5.25195H58.7758L61.0151 8.74883H61.041L61.0151 7.88445V5.25195H61.6075V9.7482H60.9891L58.6443 6.07883H58.6183L58.6443 6.94695V9.7482H58.0557Z" fill="white" stroke="white" stroke-width="0.16" stroke-miterlimit="10"/>
<path d="M52.3395 16.3144C50.5352 16.3144 49.0613 17.655 49.0613 19.5047C49.0613 21.3394 50.5352 22.694 52.3395 22.694C54.1476 22.694 55.6215 21.3394 55.6215 19.5047C55.6215 17.655 54.1476 16.3144 52.3395 16.3144ZM52.3395 21.4378C51.3495 21.4378 50.4978 20.64 50.4978 19.5047C50.4978 18.3544 51.3495 17.5706 52.3395 17.5706C53.3295 17.5706 54.185 18.3544 54.185 19.5047C54.185 20.64 53.3295 21.4378 52.3395 21.4378ZM45.1868 16.3144C43.3787 16.3144 41.9086 17.655 41.9086 19.5047C41.9086 21.3394 43.3787 22.694 45.1868 22.694C46.9939 22.694 48.465 21.3394 48.465 19.5047C48.465 17.655 46.9939 16.3144 45.1868 16.3144ZM45.1868 21.4378C44.1959 21.4378 43.3413 20.64 43.3413 19.5047C43.3413 18.3544 44.1959 17.5706 45.1868 17.5706C46.1768 17.5706 47.0285 18.3544 47.0285 19.5047C47.0285 20.64 46.1768 21.4378 45.1868 21.4378ZM36.6755 17.2922V18.6478H39.9911C39.8941 19.4053 39.6348 19.9622 39.2373 20.3503C38.7534 20.819 37.9996 21.3394 36.6755 21.3394C34.635 21.3394 33.0372 19.7315 33.0372 17.7394C33.0372 15.7472 34.635 14.1394 36.6755 14.1394C37.7787 14.1394 38.5815 14.5603 39.1739 15.1059L40.1524 14.1506C39.3237 13.3781 38.2214 12.7847 36.6755 12.7847C33.8774 12.7847 31.5258 15.0075 31.5258 17.7394C31.5258 20.4712 33.8774 22.694 36.6755 22.694C38.1878 22.694 39.3237 22.2103 40.2167 21.3028C41.1318 20.4094 41.417 19.1531 41.417 18.1387C41.417 17.8237 41.3901 17.534 41.3421 17.2922H36.6755ZM71.4795 18.3431C71.2096 17.6297 70.3771 16.3144 68.6814 16.3144C67.001 16.3144 65.602 17.6072 65.602 19.5047C65.602 21.2915 66.9866 22.694 68.8427 22.694C70.3435 22.694 71.2096 21.8006 71.5659 21.2803L70.452 20.5556C70.0804 21.0862 69.5744 21.4378 68.8427 21.4378C68.1158 21.4378 67.5944 21.1125 67.2603 20.4712L71.6302 18.7059L71.4795 18.3431ZM67.0241 19.4053C66.9866 18.1753 68.0025 17.5453 68.7304 17.5453C69.3007 17.5453 69.7847 17.8237 69.946 18.2222L67.0241 19.4053ZM63.4722 22.5H64.9087V13.125H63.4722V22.5ZM61.1197 17.025H61.0717C60.749 16.6519 60.1335 16.3144 59.3539 16.3144C57.7176 16.3144 56.2216 17.7169 56.2216 19.515C56.2216 21.3028 57.7176 22.694 59.3539 22.694C60.1335 22.694 60.749 22.3537 61.0717 21.9694H61.1197V22.4269C61.1197 23.6465 60.4523 24.3019 59.3759 24.3019C58.4983 24.3019 57.9539 23.6831 57.7292 23.1628L56.4799 23.6719C56.84 24.5175 57.7935 25.5581 59.3759 25.5581C61.0602 25.5581 62.4813 24.5906 62.4813 22.2365V16.5084H61.1197V17.025ZM59.4768 21.4378C58.4868 21.4378 57.6581 20.6287 57.6581 19.515C57.6581 18.3909 58.4868 17.5706 59.4768 17.5706C60.4523 17.5706 61.2215 18.3909 61.2215 19.515C61.2215 20.6287 60.4523 21.4378 59.4768 21.4378ZM78.2048 13.125H74.7692V22.5H76.2018V18.9478H78.2048C79.7959 18.9478 81.3562 17.8237 81.3562 16.0359C81.3562 14.249 79.7921 13.125 78.2048 13.125ZM78.2423 17.6437H76.2018V14.429H78.2423C79.3119 14.429 79.9226 15.2962 79.9226 16.0359C79.9226 16.7615 79.3119 17.6437 78.2423 17.6437ZM87.0983 16.2965C86.0632 16.2965 84.9868 16.7428 84.5442 17.7319L85.8155 18.2522C86.0892 17.7319 86.5923 17.5631 87.1243 17.5631C87.8675 17.5631 88.6212 17.999 88.6328 18.7687V18.8672C88.3735 18.7209 87.8185 18.5044 87.1358 18.5044C85.7665 18.5044 84.3713 19.2403 84.3713 20.6137C84.3713 21.87 85.4929 22.679 86.7536 22.679C87.7177 22.679 88.2496 22.2544 88.5838 21.7603H88.6328V22.485H90.0164V18.8887C90.0164 17.2265 88.7451 16.2965 87.0983 16.2965ZM86.9255 21.434C86.4569 21.434 85.804 21.2072 85.804 20.64C85.804 19.9144 86.6182 19.6359 87.323 19.6359C87.9539 19.6359 88.2496 19.7719 88.6328 19.9509C88.5204 20.819 87.7551 21.434 86.9255 21.434ZM95.0576 16.5019L93.4108 20.5659H93.3618L91.6594 16.5019H90.1144L92.6724 22.1812L91.2129 25.3415H92.7099L96.6515 16.5019H95.0576ZM82.1436 22.5H83.5801V13.125H82.1436V22.5Z" fill="white"/>
<path d="M8.01591 5.65414C7.79026 5.88476 7.65967 6.24383 7.65967 6.70883V23.2951C7.65967 23.7601 7.79026 24.1191 8.01591 24.3498L8.0716 24.4004L17.5912 15.1098V14.8904L8.0716 5.59976L8.01591 5.65414Z" fill="url(#paint0_linear_1318_1164)"/>
<path d="M20.7609 18.208L17.5912 15.1096V14.8902L20.7647 11.7918L20.8358 11.8321L24.594 13.9199C25.6666 14.5124 25.6666 15.4874 24.594 16.0836L20.8358 18.1677L20.7609 18.208Z" fill="url(#paint1_linear_1318_1164)"/>
<path d="M20.8357 18.1679L17.5912 15L8.01587 24.3497C8.37211 24.7154 8.95304 24.7594 9.61367 24.3938L20.8357 18.1679Z" fill="url(#paint2_linear_1318_1164)"/>
<path d="M20.8357 11.8322L9.61367 5.60625C8.95304 5.24438 8.37211 5.28844 8.01587 5.65406L17.5912 15L20.8357 11.8322Z" fill="url(#paint3_linear_1318_1164)"/>
<defs>
<linearGradient id="paint0_linear_1318_1164" x1="16.746" y1="23.4678" x2="4.16277" y2="10.5797" gradientUnits="userSpaceOnUse">
<stop stop-color="#00A0FF"/>
<stop offset="0.0066" stop-color="#00A1FF"/>
<stop offset="0.2601" stop-color="#00BEFF"/>
<stop offset="0.5122" stop-color="#00D2FF"/>
<stop offset="0.7604" stop-color="#00DFFF"/>
<stop offset="1" stop-color="#00E3FF"/>
</linearGradient>
<linearGradient id="paint1_linear_1318_1164" x1="25.9907" y1="14.9988" x2="7.40329" y2="14.9988" gradientUnits="userSpaceOnUse">
<stop stop-color="#FFE000"/>
<stop offset="0.4087" stop-color="#FFBD00"/>
<stop offset="0.7754" stop-color="#FFA500"/>
<stop offset="1" stop-color="#FF9C00"/>
</linearGradient>
<linearGradient id="paint2_linear_1318_1164" x1="19.0714" y1="13.278" x2="2.00759" y2="-4.19934" gradientUnits="userSpaceOnUse">
<stop stop-color="#FF3A44"/>
<stop offset="1" stop-color="#C31162"/>
</linearGradient>
<linearGradient id="paint3_linear_1318_1164" x1="5.60557" y1="29.8679" x2="13.2253" y2="22.0635" gradientUnits="userSpaceOnUse">
<stop stop-color="#32A071"/>
<stop offset="0.0685" stop-color="#2DA771"/>
<stop offset="0.4762" stop-color="#15CF74"/>
<stop offset="0.8009" stop-color="#06E775"/>
<stop offset="1" stop-color="#00F076"/>
</linearGradient>
</defs>
</svg>
