<svg width="131" height="23" viewBox="0 0 131 23" fill="none" xmlns="http://www.w3.org/2000/svg">
<rect x="125.419" y="2.19336" width="5.33086" height="15.049" stroke="#222222" stroke-width="0.5"/>
<path d="M129.469 16.2207C129.469 16.2886 129.445 16.347 129.397 16.3959C129.348 16.4447 129.289 16.4692 129.22 16.4692C129.152 16.4692 129.094 16.4447 129.046 16.3959C128.997 16.347 128.973 16.2886 128.973 16.2207C128.973 16.1528 128.997 16.0944 129.046 16.0455C129.094 15.9966 129.152 15.9722 129.22 15.9722C129.266 15.9722 129.308 15.9838 129.346 16.007C129.383 16.0294 129.413 16.0592 129.435 16.0964C129.458 16.1337 129.469 16.1751 129.469 16.2207Z" fill="#222222"/>
<path d="M129.445 15.4448H126.901V14.5379C126.901 14.3408 126.935 14.1772 127.003 14.0472C127.071 13.9163 127.165 13.8186 127.285 13.754C127.404 13.6894 127.542 13.657 127.698 13.657C127.854 13.657 127.991 13.6898 128.11 13.7552C128.227 13.8198 128.319 13.9175 128.384 14.0484C128.45 14.1784 128.482 14.342 128.482 14.5391V15.2262H128.152V14.5739C128.152 14.4497 128.134 14.3486 128.098 14.2708C128.063 14.1921 128.011 14.1345 127.943 14.0981C127.875 14.0616 127.794 14.0434 127.698 14.0434C127.602 14.0434 127.519 14.0621 127.449 14.0993C127.378 14.1358 127.324 14.1933 127.287 14.272C127.249 14.3499 127.23 14.4522 127.23 14.5789V15.0609H129.445V15.4448ZM128.297 14.1888L129.445 13.5601V13.9975L128.297 14.6137V14.1888Z" fill="#222222"/>
<path d="M128.173 10.9797C128.445 10.9797 128.678 11.0294 128.874 11.1288C129.068 11.2282 129.218 11.3645 129.323 11.5376C129.428 11.7098 129.48 11.9057 129.48 12.1252C129.48 12.3455 129.428 12.5422 129.323 12.7153C129.218 12.8876 129.068 13.0234 128.872 13.1228C128.677 13.2222 128.444 13.2719 128.173 13.2719C127.901 13.2719 127.668 13.2222 127.473 13.1228C127.278 13.0234 127.128 12.8876 127.024 12.7153C126.919 12.5422 126.866 12.3455 126.866 12.1252C126.866 11.9057 126.919 11.7098 127.024 11.5376C127.128 11.3645 127.278 11.2282 127.473 11.1288C127.668 11.0294 127.901 10.9797 128.173 10.9797ZM128.173 11.3599C127.966 11.3599 127.792 11.3934 127.65 11.4605C127.507 11.5268 127.4 11.6179 127.327 11.7339C127.253 11.849 127.216 11.9794 127.216 12.1252C127.216 12.2718 127.253 12.4027 127.327 12.5178C127.4 12.6329 127.507 12.724 127.65 12.7911C127.792 12.8574 127.966 12.8905 128.173 12.8905C128.38 12.8905 128.555 12.8574 128.697 12.7911C128.839 12.724 128.947 12.6329 129.02 12.5178C129.093 12.4027 129.13 12.2718 129.13 12.1252C129.13 11.9794 129.093 11.849 129.02 11.7339C128.947 11.6179 128.839 11.5268 128.697 11.4605C128.555 11.3934 128.38 11.3599 128.173 11.3599Z" fill="#222222"/>
<path d="M127.728 8.38784V8.77546C127.645 8.79037 127.572 8.81812 127.51 8.8587C127.447 8.89929 127.393 8.94898 127.349 9.00779C127.305 9.06659 127.272 9.13244 127.25 9.20532C127.227 9.27738 127.216 9.35399 127.216 9.43516C127.216 9.58176 127.253 9.71304 127.327 9.82899C127.401 9.94412 127.509 10.0352 127.651 10.1023C127.794 10.1686 127.968 10.2017 128.173 10.2017C128.38 10.2017 128.555 10.1686 128.697 10.1023C128.84 10.0352 128.947 9.94371 129.02 9.82775C129.093 9.7118 129.13 9.58135 129.13 9.4364C129.13 9.35606 129.119 9.27987 129.097 9.20781C129.075 9.13492 129.042 9.06908 128.999 9.01027C128.956 8.95147 128.903 8.90177 128.841 8.86119C128.778 8.81977 128.706 8.7912 128.625 8.77546L128.626 8.38784C128.751 8.40855 128.867 8.44872 128.972 8.50835C129.076 8.56716 129.166 8.64294 129.243 8.73571C129.318 8.82764 129.376 8.93283 129.418 9.05127C129.459 9.16971 129.48 9.29892 129.48 9.43889C129.48 9.6592 129.428 9.8555 129.323 10.0278C129.218 10.2 129.068 10.3359 128.872 10.4353C128.677 10.5338 128.444 10.5831 128.173 10.5831C127.901 10.5831 127.668 10.5334 127.473 10.434C127.278 10.3346 127.128 10.1988 127.024 10.0265C126.919 9.85426 126.866 9.65837 126.866 9.43889C126.866 9.30388 126.885 9.17799 126.924 9.06121C126.962 8.9436 127.019 8.838 127.093 8.7444C127.167 8.65081 127.257 8.57337 127.364 8.51208C127.47 8.45079 127.592 8.40938 127.728 8.38784Z" fill="#222222"/>
<path d="M129.445 7.92848H126.901V7.54458H128.116V7.51353L126.901 6.44633V5.96305L128.046 6.98924L129.445 5.95932V6.42148L128.308 7.24393L128.654 7.54458H129.445V7.92848Z" fill="#222222"/>
<path d="M127.569 4.22435C127.452 4.2376 127.36 4.29227 127.296 4.38834C127.23 4.48442 127.198 4.60534 127.198 4.75111C127.198 4.85547 127.214 4.94575 127.247 5.02195C127.28 5.09815 127.324 5.15737 127.382 5.19961C127.438 5.24102 127.502 5.26173 127.574 5.26173C127.635 5.26173 127.687 5.24765 127.731 5.21949C127.775 5.1905 127.811 5.15281 127.841 5.10643C127.87 5.05922 127.895 5.0087 127.915 4.95486C127.934 4.90103 127.949 4.84926 127.962 4.79957L128.026 4.55109C128.046 4.46992 128.073 4.38669 128.107 4.30138C128.141 4.21607 128.186 4.13697 128.241 4.06408C128.297 3.9912 128.366 3.93239 128.448 3.88767C128.53 3.84211 128.628 3.81934 128.742 3.81934C128.886 3.81934 129.014 3.85661 129.126 3.93115C129.238 4.00486 129.326 4.11212 129.39 4.25292C129.455 4.3929 129.487 4.56227 129.487 4.76105C129.487 4.95155 129.457 5.11637 129.397 5.25552C129.336 5.39466 129.25 5.50358 129.14 5.58226C129.028 5.66094 128.895 5.70443 128.742 5.71271V5.32757C128.834 5.32012 128.91 5.2903 128.972 5.23812C129.032 5.18512 129.077 5.11761 129.107 5.03562C129.136 4.95279 129.151 4.8621 129.151 4.76354C129.151 4.65504 129.134 4.55855 129.1 4.47407C129.065 4.38876 129.017 4.32167 128.956 4.2728C128.894 4.22393 128.821 4.1995 128.738 4.1995C128.663 4.1995 128.601 4.22104 128.553 4.2641C128.505 4.30635 128.465 4.36391 128.434 4.43679C128.402 4.50885 128.375 4.59043 128.351 4.68154L128.269 4.9822C128.213 5.18594 128.132 5.34745 128.024 5.46672C127.916 5.58516 127.774 5.64438 127.596 5.64438C127.45 5.64438 127.322 5.60462 127.213 5.52511C127.103 5.4456 127.018 5.33793 126.958 5.20209C126.897 5.06626 126.866 4.91304 126.866 4.74242C126.866 4.57014 126.896 4.41816 126.957 4.28647C127.017 4.15395 127.1 4.04959 127.206 3.97339C127.312 3.89719 127.432 3.85744 127.569 3.85412V4.22435Z" fill="#222222"/>
<path d="M12.4678 0L23.2653 16.9095H1.67037L12.4678 0Z" fill="#1EBE5F"/>
<path fill-rule="evenodd" clip-rule="evenodd" d="M17.9737 8.51402L12.5371 0L1.73969 16.9095H12.6128L17.9737 8.51402ZM23.3346 16.9095L17.9737 8.51402L23.4103 0L34.2077 16.9095H23.3346Z" fill="#FFE000"/>
<path fill-rule="evenodd" clip-rule="evenodd" d="M17.9044 8.51398L12.4679 0L1.67041 16.9095H12.5435L17.9044 8.51398Z" fill="#29C5FE"/>
<path d="M47.5907 2.86108L41.7971 8.80156L41.6292 8.96949L38.0607 12.601V11.1736L46.2053 2.86108H47.5907ZM38.6065 2.86108V16.7152H37.5569V2.86108H38.6065ZM41.8811 8.10886L47.7376 16.7152H46.4572L41.0415 8.73859L41.8811 8.10886Z" fill="#111111"/>
<path d="M60.9064 16.7152H59.7939L58.0516 12.3701H51.4394L49.6972 16.7152H48.5847L54.1263 2.86108H55.3648L60.9064 16.7152ZM51.8173 11.4045H57.6738L54.735 3.88965L51.8173 11.4045Z" fill="#111111"/>
<path d="M68.6311 2.86108C70.0166 2.86108 71.1151 3.21094 71.9267 3.91064C72.7524 4.61034 73.1652 5.56894 73.1652 6.78642C73.1652 8.0039 72.7524 8.9555 71.9267 9.64121C71.1011 10.3129 69.9956 10.6488 68.6102 10.6488L68.5052 10.7118H64.5379V16.7152H63.4883V2.86108H68.6311ZM68.6102 9.72517C69.7297 9.72517 70.5833 9.47328 71.1711 8.96949C71.7728 8.46571 72.0737 7.73802 72.0737 6.78642C72.0737 5.83482 71.7728 5.10713 71.1711 4.60335C70.5833 4.08556 69.7297 3.82667 68.6102 3.82667H64.5379V9.72517H68.6102ZM69.4288 9.91409L73.8999 16.7152H72.6614L68.5472 10.5018L69.4288 9.91409Z" fill="#111111"/>
<path d="M81.5123 2.86108C82.4779 2.86108 83.3105 3.02901 84.0102 3.36487C84.7099 3.68673 85.2487 4.14854 85.6266 4.75028C86.0184 5.35203 86.2143 6.07272 86.2143 6.91237C86.2143 7.766 86.0184 8.4937 85.6266 9.09544C85.2487 9.69718 84.7099 10.166 84.0102 10.5018C83.3105 10.8237 82.4779 10.9846 81.5123 10.9846H77.9648V16.7152H76.9152V2.86108H81.5123ZM81.3863 9.99806C82.6038 9.99806 83.5274 9.73217 84.1572 9.2004C84.7869 8.65463 85.1018 7.89195 85.1018 6.91237C85.1018 5.93278 84.7869 5.1771 84.1572 4.64533C83.5274 4.09956 82.6038 3.82667 81.3863 3.82667H77.9648V9.99806H81.3863Z" fill="#111111"/>
<path d="M98.8913 16.7152H97.7788L96.0365 12.3701H89.4243L87.682 16.7152H86.5695L92.1112 2.86108H93.3496L98.8913 16.7152ZM89.8021 11.4045H95.6587L92.7199 3.88965L89.8021 11.4045Z" fill="#111111"/>
<path d="M108.931 2.86108V3.82667H103.872V16.7152H102.822V3.82667H97.7635V2.86108H108.931Z" fill="#111111"/>
<path d="M120.542 2.86108L115.631 11.3205V16.7152H114.581V11.3205L109.669 2.86108H110.908L113.615 7.60507L115.106 10.229L116.596 7.60507L119.304 2.86108H120.542Z" fill="#111111"/>
</svg>
