<svg width="30" height="30" viewBox="0 0 30 30" fill="none" xmlns="http://www.w3.org/2000/svg">
<path fill-rule="evenodd" clip-rule="evenodd" d="M5 15.0426C5 14.7042 5.17122 14.3886 5.45501 14.2042L14.455 8.35418C14.7864 8.13877 15.2136 8.13877 15.545 8.35418L24.545 14.2042C24.8288 14.3886 25 14.7042 25 15.0426V23.9999C25 24.5522 24.5523 24.9999 24 24.9999H6C5.44772 24.9999 5 24.5522 5 23.9999V15.0426ZM9 13.9999C9 13.4477 9.44772 12.9999 10 12.9999H13C13.5523 12.9999 14 13.4477 14 13.9999V15.9999C14 16.5522 13.5523 16.9999 13 16.9999H10C9.44772 16.9999 9 16.5522 9 15.9999V13.9999ZM10 18.9999C9.44772 18.9999 9 19.4477 9 19.9999V21.9999C9 22.5522 9.44772 22.9999 10 22.9999H13C13.5523 22.9999 14 22.5522 14 21.9999V19.9999C14 19.4477 13.5523 18.9999 13 18.9999H10ZM16 13.9999C16 13.4477 16.4477 12.9999 17 12.9999H20C20.5523 12.9999 21 13.4477 21 13.9999V15.9999C21 16.5522 20.5523 16.9999 20 16.9999H17C16.4477 16.9999 16 16.5522 16 15.9999V13.9999ZM17 18.9999C16.4477 18.9999 16 19.4477 16 19.9999V21.9999C16 22.5522 16.4477 22.9999 17 22.9999H20C20.5523 22.9999 21 22.5522 21 21.9999V19.9999C21 19.4477 20.5523 18.9999 20 18.9999H17Z" fill="white"/>
<path d="M1.79651 12.3133L14.4672 4.33547C14.7928 4.13045 15.2072 4.13045 15.5328 4.33547L28.2035 12.3133C28.388 12.4295 28.5 12.6323 28.5 12.8504C28.5 13.3498 27.9498 13.6536 27.5272 13.3875L15.5328 5.83547C15.2072 5.63045 14.7928 5.63045 14.4672 5.83547L2.47284 13.3875C2.05019 13.6536 1.5 13.3498 1.5 12.8504C1.5 12.6323 1.61197 12.4295 1.79651 12.3133Z" fill="white" stroke="white"/>
</svg>
