<svg width="30" height="30" viewBox="0 0 30 30" fill="none" xmlns="http://www.w3.org/2000/svg">
<g clip-path="url(#clip0_1329_1132)">
<path fill-rule="evenodd" clip-rule="evenodd" d="M6.4291 0C4.72442 -1.25698e-07 3.08953 0.677011 1.88391 1.88217C0.678293 3.08732 0.000654637 4.72196 0 6.42663V23.5709C0 25.276 0.67735 26.9113 1.88304 28.117C3.08873 29.3227 4.724 30 6.4291 30H23.5734C25.278 29.9993 26.9127 29.3217 28.1178 28.1161C29.323 26.9105 30 25.2756 30 23.5709V6.42663C29.9993 4.72238 29.322 3.08812 28.117 1.88304C26.9119 0.677954 25.2776 0.000654348 23.5734 0H6.4291ZM25.4226 6.43651C25.4226 6.92761 25.2275 7.3986 24.8802 7.74586C24.533 8.09312 24.062 8.28821 23.5709 8.28821C23.0798 8.28821 22.6088 8.09312 22.2615 7.74586C21.9143 7.3986 21.7192 6.92761 21.7192 6.43651C21.7192 5.94541 21.9143 5.47442 22.2615 5.12716C22.6088 4.7799 23.0798 4.58481 23.5709 4.58481C24.062 4.58481 24.533 4.7799 24.8802 5.12716C25.2275 5.47442 25.4226 5.94541 25.4226 6.43651ZM15.0037 9.86339C13.6417 9.86339 12.3355 10.4044 11.3724 11.3675C10.4094 12.3306 9.86832 13.6368 9.86832 14.9988C9.86832 16.3608 10.4094 17.667 11.3724 18.63C12.3355 19.5931 13.6417 20.1341 15.0037 20.1341C16.3657 20.1341 17.6719 19.5931 18.635 18.63C19.598 17.667 20.1391 16.3608 20.1391 14.9988C20.1391 13.6368 19.598 12.3306 18.635 11.3675C17.6719 10.4044 16.3657 9.86339 15.0037 9.86339ZM7.39692 14.9988C7.39692 12.982 8.19809 11.0478 9.62417 9.62171C11.0503 8.19562 12.9844 7.39445 15.0012 7.39445C17.018 7.39445 18.9522 8.19562 20.3783 9.62171C21.8044 11.0478 22.6055 12.982 22.6055 14.9988C22.6055 17.0156 21.8044 18.9497 20.3783 20.3758C18.9522 21.8019 17.018 22.6031 15.0012 22.6031C12.9844 22.6031 11.0503 21.8019 9.62417 20.3758C8.19809 18.9497 7.39692 17.0156 7.39692 14.9988Z" fill="black"/>
</g>
<defs>
<clipPath id="clip0_1329_1132">
<rect width="30" height="30" fill="white"/>
</clipPath>
</defs>
</svg>
