<svg width="191" height="33" viewBox="0 0 191 33" fill="none" xmlns="http://www.w3.org/2000/svg">
<rect x="182.749" y="3.08374" width="8.00148" height="22.1706" stroke="#222222" stroke-width="0.5"/>
<path d="M188.767 23.65C188.767 23.749 188.732 23.8341 188.662 23.9054C188.591 23.9766 188.505 24.0122 188.405 24.0122C188.306 24.0122 188.222 23.9766 188.151 23.9054C188.08 23.8341 188.045 23.749 188.045 23.65C188.045 23.5509 188.08 23.4658 188.151 23.3946C188.222 23.3233 188.306 23.2877 188.405 23.2877C188.471 23.2877 188.532 23.3046 188.588 23.3384C188.642 23.371 188.686 23.4145 188.718 23.4688C188.751 23.5232 188.767 23.5835 188.767 23.65Z" fill="#222222"/>
<path d="M188.733 22.5187H185.023V21.1964C185.023 20.909 185.073 20.6705 185.172 20.4809C185.271 20.2901 185.408 20.1476 185.583 20.0534C185.757 19.9592 185.958 19.9121 186.186 19.9121C186.413 19.9121 186.613 19.9598 186.786 20.0552C186.957 20.1494 187.091 20.2919 187.186 20.4827C187.281 20.6723 187.329 20.9108 187.329 21.1982V22.1999H186.847V21.249C186.847 21.0678 186.821 20.9205 186.769 20.807C186.717 20.6922 186.642 20.6083 186.543 20.5552C186.444 20.5021 186.325 20.4755 186.186 20.4755C186.046 20.4755 185.925 20.5027 185.822 20.557C185.719 20.6101 185.641 20.6941 185.587 20.8088C185.531 20.9223 185.503 21.0714 185.503 21.2562V21.959H188.733V22.5187ZM187.059 20.6874L188.733 19.7709V20.4085L187.059 21.3069V20.6874Z" fill="#222222"/>
<path d="M186.878 16.0086C187.274 16.0086 187.615 16.081 187.9 16.226C188.183 16.3709 188.402 16.5695 188.555 16.8219C188.708 17.0731 188.784 17.3587 188.784 17.6787C188.784 17.9999 188.708 18.2867 188.555 18.5391C188.402 18.7903 188.183 18.9883 187.898 19.1332C187.613 19.2782 187.273 19.3506 186.878 19.3506C186.482 19.3506 186.142 19.2782 185.858 19.1332C185.573 18.9883 185.355 18.7903 185.203 18.5391C185.049 18.2867 184.972 17.9999 184.972 17.6787C184.972 17.3587 185.049 17.0731 185.203 16.8219C185.355 16.5695 185.573 16.3709 185.858 16.226C186.142 16.081 186.482 16.0086 186.878 16.0086ZM186.878 16.5629C186.576 16.5629 186.322 16.6118 186.115 16.7096C185.908 16.8062 185.751 16.939 185.645 17.1081C185.537 17.276 185.483 17.4662 185.483 17.6787C185.483 17.8924 185.537 18.0832 185.645 18.2511C185.751 18.4189 185.908 18.5518 186.115 18.6496C186.322 18.7462 186.576 18.7945 186.878 18.7945C187.18 18.7945 187.435 18.7462 187.642 18.6496C187.849 18.5518 188.006 18.4189 188.113 18.2511C188.22 18.0832 188.273 17.8924 188.273 17.6787C188.273 17.4662 188.22 17.276 188.113 17.1081C188.006 16.939 187.849 16.8062 187.642 16.7096C187.435 16.6118 187.18 16.5629 186.878 16.5629Z" fill="#222222"/>
<path d="M186.23 12.2296V12.7947C186.109 12.8165 186.003 12.8569 185.911 12.9161C185.819 12.9752 185.741 13.0477 185.677 13.1334C185.613 13.2192 185.565 13.3152 185.532 13.4215C185.5 13.5265 185.483 13.6382 185.483 13.7566C185.483 13.9703 185.537 14.1617 185.645 14.3308C185.752 14.4986 185.91 14.6315 186.117 14.7293C186.325 14.8259 186.579 14.8742 186.878 14.8742C187.18 14.8742 187.435 14.8259 187.642 14.7293C187.85 14.6315 188.007 14.498 188.113 14.329C188.22 14.1599 188.273 13.9697 188.273 13.7584C188.273 13.6412 188.257 13.5301 188.226 13.4251C188.193 13.3188 188.145 13.2228 188.083 13.1371C188.02 13.0513 187.943 12.9789 187.853 12.9197C187.761 12.8593 187.656 12.8177 187.537 12.7947L187.539 12.2296C187.722 12.2597 187.889 12.3183 188.043 12.4053C188.195 12.491 188.327 12.6015 188.438 12.7367C188.548 12.8708 188.633 13.0242 188.693 13.1968C188.753 13.3695 188.784 13.5579 188.784 13.762C188.784 14.0832 188.708 14.3694 188.555 14.6206C188.402 14.8718 188.183 15.0698 187.898 15.2147C187.613 15.3584 187.273 15.4303 186.878 15.4303C186.482 15.4303 186.142 15.3578 185.858 15.2129C185.573 15.068 185.355 14.87 185.203 14.6188C185.049 14.3676 184.972 14.082 184.972 13.762C184.972 13.5652 185.001 13.3816 185.058 13.2113C185.113 13.0399 185.195 12.8859 185.304 12.7494C185.411 12.613 185.543 12.5001 185.699 12.4107C185.853 12.3213 186.03 12.261 186.23 12.2296Z" fill="#222222"/>
<path d="M188.733 11.5598H185.023V11.0001H186.795V10.9548L185.023 9.3988V8.69417L186.693 10.1904L188.733 8.68873V9.36257L187.076 10.5617L187.579 11.0001H188.733V11.5598Z" fill="#222222"/>
<path d="M185.998 6.15912C185.826 6.17844 185.693 6.25814 185.599 6.39822C185.504 6.5383 185.456 6.71461 185.456 6.92715C185.456 7.07931 185.48 7.21094 185.529 7.32203C185.576 7.43313 185.641 7.51948 185.724 7.58106C185.806 7.64144 185.9 7.67163 186.005 7.67163C186.093 7.67163 186.169 7.6511 186.233 7.61005C186.297 7.56778 186.351 7.51283 186.394 7.44521C186.437 7.37638 186.472 7.30271 186.501 7.22422C186.529 7.14573 186.552 7.07025 186.57 6.99779L186.664 6.63552C186.693 6.51717 186.733 6.39581 186.782 6.27143C186.832 6.14704 186.897 6.03172 186.978 5.92545C187.059 5.81918 187.159 5.73344 187.278 5.66823C187.398 5.60181 187.541 5.5686 187.708 5.5686C187.918 5.5686 188.104 5.62295 188.267 5.73163C188.43 5.83911 188.559 5.99549 188.653 6.20078C188.747 6.40486 188.795 6.65182 188.795 6.94164C188.795 7.21939 188.75 7.4597 188.662 7.66258C188.574 7.86545 188.449 8.02425 188.287 8.13897C188.124 8.2537 187.931 8.31709 187.708 8.32917V7.76764C187.842 7.75677 187.953 7.7133 188.043 7.63722C188.131 7.55993 188.197 7.46151 188.24 7.34196C188.282 7.2212 188.304 7.08897 188.304 6.94526C188.304 6.78707 188.279 6.64638 188.229 6.52321C188.179 6.39883 188.109 6.30101 188.019 6.22976C187.929 6.15851 187.823 6.12289 187.702 6.12289C187.592 6.12289 187.502 6.15429 187.432 6.21708C187.362 6.27867 187.304 6.3626 187.258 6.46887C187.213 6.57393 187.172 6.69288 187.137 6.82571L187.018 7.26407C186.937 7.56114 186.818 7.79662 186.661 7.97051C186.504 8.1432 186.296 8.22954 186.038 8.22954C185.824 8.22954 185.637 8.17158 185.478 8.05565C185.318 7.93972 185.195 7.78273 185.107 7.58469C185.017 7.38664 184.972 7.16324 184.972 6.91447C184.972 6.66329 185.017 6.4417 185.105 6.24969C185.193 6.05647 185.314 5.90432 185.469 5.79322C185.622 5.68212 185.798 5.62415 185.998 5.61932V6.15912Z" fill="#222222"/>
<path d="M18.1783 0L33.9211 24.6543H2.43543L18.1783 0Z" fill="#1EBE5F"/>
<path fill-rule="evenodd" clip-rule="evenodd" d="M26.2059 12.4135L18.2794 0L2.5365 24.6543H18.3896L26.2059 12.4135ZM34.0222 24.6543L26.2059 12.4135L34.1325 0L49.8754 24.6543H34.0222Z" fill="#FFE000"/>
<path fill-rule="evenodd" clip-rule="evenodd" d="M26.1049 12.4135L18.1783 0L2.43542 24.6543H18.2886L26.1049 12.4135Z" fill="#29C5FE"/>
<path d="M69.388 4.17139L60.9409 12.8327L60.696 13.0775L55.4931 18.3723V16.2911L67.368 4.17139H69.388ZM56.2889 4.17139V24.3709H54.7586V4.17139H56.2889ZM61.0633 11.8227L69.6022 24.3709H67.7353L59.8391 12.7409L61.0633 11.8227Z" fill="#111111"/>
<path d="M88.8025 24.3709H87.1804L84.6402 18.0356H74.9995L72.4593 24.3709H70.8372L78.917 4.17139H80.7227L88.8025 24.3709ZM75.5504 16.6278H84.0893L79.8045 5.67105L75.5504 16.6278Z" fill="#111111"/>
<path d="M100.065 4.17139C102.085 4.17139 103.687 4.68148 104.87 5.70165C106.074 6.72183 106.676 8.11948 106.676 9.89459C106.676 11.6697 106.074 13.0571 104.87 14.0569C103.666 15.0363 102.055 15.526 100.035 15.526L99.8816 15.6178H94.0972V24.3709H92.567V4.17139H100.065ZM100.035 14.1793C101.667 14.1793 102.912 13.8121 103.769 13.0775C104.646 12.343 105.085 11.282 105.085 9.89459C105.085 8.50714 104.646 7.44616 103.769 6.71163C102.912 5.9567 101.667 5.57923 100.035 5.57923H94.0972V14.1793H100.035ZM101.228 14.4548L107.747 24.3709H105.941L99.9428 15.3117L101.228 14.4548Z" fill="#111111"/>
<path d="M118.846 4.17139C120.254 4.17139 121.468 4.41623 122.488 4.90591C123.508 5.3752 124.294 6.04851 124.845 6.92587C125.416 7.80322 125.702 8.854 125.702 10.0782C125.702 11.3228 125.416 12.3838 124.845 13.2612C124.294 14.1385 123.508 14.822 122.488 15.3117C121.468 15.781 120.254 16.0157 118.846 16.0157H113.674V24.3709H112.144V4.17139H118.846ZM118.663 14.5772C120.438 14.5772 121.784 14.1895 122.702 13.4142C123.621 12.6185 124.08 11.5065 124.08 10.0782C124.08 8.64997 123.621 7.54818 122.702 6.77284C121.784 5.9771 120.438 5.57923 118.663 5.57923H113.674V14.5772H118.663Z" fill="#111111"/>
<path d="M144.185 24.3709H142.563L140.023 18.0356H130.382L127.842 24.3709H126.22L134.299 4.17139H136.105L144.185 24.3709ZM130.933 16.6278H139.472L135.187 5.67105L130.933 16.6278Z" fill="#111111"/>
<path d="M158.823 4.17139V5.57923H151.447V24.3709H149.917V5.57923H142.541V4.17139H158.823Z" fill="#111111"/>
<path d="M175.753 4.17139L168.591 16.5053V24.3709H167.061V16.5053L159.899 4.17139H161.705L165.653 11.0882L167.826 14.9139L169.999 11.0882L173.947 4.17139H175.753Z" fill="#111111"/>
</svg>
