<svg width="30" height="30" viewBox="0 0 30 30" fill="none" xmlns="http://www.w3.org/2000/svg">
<path fill-rule="evenodd" clip-rule="evenodd" d="M28.2705 25C29.0398 25 29.521 24.1678 29.1372 23.5012L18.7902 5.5253C18.4056 4.85713 17.4414 4.85712 17.0568 5.5253L12.5971 13.2732C12.4193 13.582 12.4193 13.9621 12.5971 14.2709L18.4844 24.4989C18.6629 24.809 18.9934 25 19.3511 25H28.2705ZM1.72939 25C0.960174 25 0.478977 24.1678 0.862714 23.5012L7.49387 11.9809C7.87848 11.3127 8.84262 11.3127 9.22723 11.9809L15.8584 23.5012C16.2421 24.1678 15.7609 25 14.9917 25H1.72939Z" fill="white"/>
</svg>
